<?xml version="1.0" standalone="no"?>
<!DOCTYPE svg PUBLIC "-//W3C//DTD SVG 20010904//EN"
 "http://www.w3.org/TR/2001/REC-SVG-20010904/DTD/svg10.dtd">
<svg version="1.0" xmlns="http://www.w3.org/2000/svg"
 width="825.000000pt" height="719.000000pt" viewBox="0 0 825.000000 719.000000"
 preserveAspectRatio="xMidYMid meet">
<metadata>
Created by potrace 1.16, written by Peter Selinger 2001-2019
</metadata>
<g transform="translate(0.000000,719.000000) scale(0.100000,-0.100000)"
fill="#000000" stroke="none">
<path d="M3212 6437 c-13 -14 -22 -36 -22 -55 0 -18 -140 -573 -311 -1235
-171 -661 -347 -1345 -392 -1519 l-82 -318 -786 0 -786 0 -21 -23 c-27 -29
-28 -71 -2 -97 20 -20 33 -20 848 -20 652 0 832 3 845 13 18 12 56 158 543
2044 104 403 191 733 194 733 3 0 70 -474 148 -1052 585 -4334 551 -4091 574
-4115 31 -33 116 -33 145 -1 14 16 185 580 568 1883 301 1023 548 1861 549
1862 1 1 143 -302 316 -673 173 -372 322 -680 332 -685 9 -5 366 -9 842 -9
813 0 826 0 846 20 27 27 26 71 -3 98 l-23 22 -790 0 -789 0 -344 738 c-188
405 -350 743 -359 750 -23 18 -69 15 -89 -6 -11 -11 -225 -720 -563 -1870
-423 -1438 -547 -1846 -552 -1824 -4 15 -168 1215 -364 2667 -195 1451 -360
2647 -365 2657 -22 42 -75 49 -107 15z"/>
</g>
</svg>
